# xmcd
#
# Track frame offsets:
#	150
#	40785
#	81586
#	125023
#	170107
#	211190
#	252679
#	288652
#
# Disc length: 4351 seconds
#
# Revision: 0
# Processed by: cddbd v1.5.2PL0 Copyright (c) Steve Scherf et al.
# Submitted via: audiograbber 1.83.01
#
DISCID=7f10fd08
DTITLE=Pastor Grace Philip - Kings Unto God
DYEAR=2009
DGENRE=Gospel
TTITLE0=How To Become A King
TTITLE1=Throw Out Things That Damage The Soul
TTITLE2=Be King in Your Own Life
TTITLE3=A King Always Trust The Lord
TTITLE4=Give God Your Faith
TTITLE5=Develop Tender Hearts
TTITLE6=Put Your Faith In God
TTITLE7=Be Wise As Serpents
EXTD=Agape Bible Ministries\nRiverside Road\nCurepe\nTrinidad and Tobago\n1-868-6
EXTD=63-5075\nwww.agapebm.com\nPastors Samuel and Grace Philip
EXTT0=
EXTT1=
EXTT2=
EXTT3=
EXTT4=
EXTT5=
EXTT6=
EXTT7=
PLAYORDER=
